<?xml version="1.0" encoding="utf-8"?>
<!-- Svg Vector Icons : http://www.onlinewebfonts.com/icon -->
<!DOCTYPE svg PUBLIC "-//W3C//DTD SVG 1.1//EN" "http://www.w3.org/Graphics/SVG/1.1/DTD/svg11.dtd">
<svg version="1.1" xmlns="http://www.w3.org/2000/svg" xmlns:xlink="http://www.w3.org/1999/xlink" x="0px" y="0px" viewBox="0 0 256 256" enable-background="new 0 0 256 256" xml:space="preserve">
<metadata> Svg Vector Icons : http://www.onlinewebfonts.com/icon </metadata>
<g><g><path fill="#000000" d="M47.9,83.7V230c0,8.8,7.2,16,16,16h128.8c8.8,0,16-7.2,16-16V83.7H47.9L47.9,83.7z M91.5,216.2H77.1V112.3h14.4V216.2L91.5,216.2z M120.6,216.2h-14.4V112.3h14.4V216.2L120.6,216.2z M149.8,216.2h-14.4V112.3h14.4V216.2L149.8,216.2z M178.8,216.2h-14.4V112.3h14.4V216.2L178.8,216.2z M206.9,39.4h-25.7V26c0-8.8-7.2-16-16-16H95.3c-8.8,0-16,7.2-16,16v13.4H49.1c-8.8,0-16,7.2-16,16v13.1h189.7V55.4C222.9,46.6,215.7,39.4,206.9,39.4L206.9,39.4z M166.6,39.5H93.7V24.9h72.9V39.5L166.6,39.5z"/></g></g>
</svg>