<?xml version="1.0" encoding="utf-8"?>
<!-- Svg Vector Icons : http://www.onlinewebfonts.com/icon -->
<!DOCTYPE svg PUBLIC "-//W3C//DTD SVG 1.1//EN" "http://www.w3.org/Graphics/SVG/1.1/DTD/svg11.dtd">
<svg version="1.1" xmlns="http://www.w3.org/2000/svg" xmlns:xlink="http://www.w3.org/1999/xlink" x="0px" y="0px" viewBox="0 0 256 256" enable-background="new 0 0 256 256" xml:space="preserve">
<metadata> Svg Vector Icons : http://www.onlinewebfonts.com/icon </metadata>
<g><g><g><path fill="#000000" d="M197.2,10.6c-1.7,0.3-4.8,1.5-6.9,2.5c-3.7,1.8-4.6,2.5-16.1,14.1l-12.3,12.2H99.2c-70.1,0-66-0.2-73.1,3.3c-6.9,3.4-12,9.5-14.9,17.4l-1.1,3l-0.1,77.7c-0.1,86.3-0.3,81.7,2.9,88.3c4.1,8.4,11.5,14.2,20.7,16.1c3.1,0.6,12,0.7,79.7,0.7c84.4,0,79.9,0.1,86.5-3c8.5-4.1,14.3-11.6,16.1-20.8c0.6-3.2,0.7-10,0.6-59.9l-0.1-56.3l-1.2-2.5c-1.7-3.6-3.1-5.2-6.5-7c-2.6-1.4-3.3-1.5-6.8-1.6c-7.2,0-5.3-1.5-34.4,27.4c-22.6,22.6-26.1,25.8-28.1,26.6c-2,0.8-3.6,0.9-12.5,0.9c-9.8,0-10.2,0-12.5-1.1c-2.9-1.5-5.7-4.3-7.2-7.2c-1.1-2.2-1.1-2.6-1.1-12.5c0-8.9,0.1-10.4,0.9-12.5c0.7-1.9,2.6-4.1,10.7-12.3c10.5-10.7,10.8-11.2,10.1-15c-0.4-2.2-3.4-5.1-5.5-5.5c-4-0.7-4.3-0.5-15.5,10.8c-9.6,9.7-10.6,10.7-12.3,14.3c-3.2,6.5-3.4,8.1-3.2,27.6l0.1,17.1l1.2,2.6c1.5,3.3,4,5.8,7.3,7.3l2.6,1.2l17.1,0.1c19.5,0.1,21.1,0,27.6-3.2c3.6-1.8,4.5-2.6,26.4-24.4c12.5-12.4,23.1-22.6,23.7-22.8c1.4-0.4,3.5,0.5,4.2,1.8c0.4,0.7,0.5,13.7,0.4,51.1l-0.1,50l-1.8,3.5c-2.6,5.3-6.9,8.8-12.4,10.1c-1.2,0.3-28.3,0.5-74.5,0.5c-72.4,0-72.6,0-75.5-1c-5.6-1.8-10.2-6.5-11.9-11.9c-0.9-3-0.9-4.2-0.8-76.6C25,69.7,25,68.2,25.9,66c2.1-5.1,6.7-9.4,11.7-10.9c2.9-0.9,4.4-0.9,66.6-0.9h63.7l13.6-13.6c8.6-8.6,14.3-13.9,15.7-14.6c1.8-0.9,2.8-1.1,6.5-1.1s4.7,0.2,6.5,1.1c2.9,1.5,18,16.6,19.7,19.6c1.2,2.1,1.3,2.8,1.3,6.7c0,4-0.1,4.6-1.3,6.8c-1.8,3.2-4,5.2-5.9,5.2c-1.2,0-2.6-1.2-10.7-9.2c-7.6-7.5-9.6-9.3-11.2-9.8c-5.4-1.6-10.5,3.6-8.9,8.9c0.5,1.7,2.4,3.8,11.2,12.7c12.8,12.9,13.5,13.3,19.7,13.3c5.7,0,7.6-1,13-6.6c6.6-6.9,9.5-14.3,9-23c-0.3-4.9-1.2-8.1-3.4-12.5c-1.4-2.7-3.2-4.8-11.6-13.2c-9.4-9.4-10.2-10.1-13.9-11.9C210.6,10,203.9,9.2,197.2,10.6z"/><path fill="#000000" d="M136.1,65.9c-1.9,0.8-3.8,3.2-4.2,5.1c-0.5,2.7,0.2,4.8,2.1,6.7c1.1,1.1,2.4,1.9,3.4,2.1c2.7,0.5,4.8-0.1,6.7-2.1C149.9,72,143.5,62.7,136.1,65.9z"/></g></g></g>
</svg>